PathFileType	4	(X/Y/Z)	Patient4_TMGait_0pt8_01_right_43.trc.trc
DataRate	CameraRate	NumFrames	NumMarkers	Units	OrigDataRate	OrigDataStartFrame	OrigNumFrames
85.365853658537	85.365853658537	4	33	mm	85.365853658537	106	       141
Frame#	Time	Sacral			L.Shoulder			Chest			R.Shoulder			Neck			R.ASIS			L.ASIS			R.Thigh.Superior			R.Thigh.Lateral			R.Thigh.Inferior			R.Patella			L.Thigh.Superior			L.Thigh.Lateral			L.Thigh.Inferior			L.Patella			L.Shank.Superior			L.Shank.Lateral			L.Shank.Inferior			R.Shank.Superior			R.Shank.Lateral			R.Shank.Inferior			R.Heel			R.Midfoot.Superior			R.Midfoot.Lateral			R.Toe			L.Heel			L.Midfoot.Lateral			L.Midfoot.Superior			L.Toe			L.Elbow			L.Wrist			R.Elbow			R.Wrist			
		X1	Y1	Z1	X2	Y2	Z2	X3	Y3	Z3	X4	Y4	Z4	X5	Y5	Z5	X6	Y6	Z6	X7	Y7	Z7	X8	Y8	Z8	X9	Y9	Z9	X10	Y10	Z10	X11	Y11	Z11	X12	Y12	Z12	X13	Y13	Z13	X14	Y14	Z14	X15	Y15	Z15	X16	Y16	Z16	X17	Y17	Z17	X18	Y18	Z18	X19	Y19	Z19	X20	Y20	Z20	X21	Y21	Z21	X22	Y22	Z22	X23	Y23	Z23	X24	Y24	Z24	X25	Y25	Z25	X26	Y26	Z26	X27	Y27	Z27	X28	Y28	Z28	X29	Y29	Z29	X30	Y30	Z30	X31	Y31	Z31	X32	Y32	Z32	X33	Y33	Z33	

106	49.520000000000	917.986321352202	1014.466367270124	441.428426032910	1107.303415152614	1444.840053835158	267.558382772438	1204.785050513898	1371.509866335842	430.141867797700	1116.946207006993	1439.802088405839	604.194533078578	1086.029971850374	1501.987191565532	425.153199323428	1144.928986300306	953.354961440993	559.547110957516	1132.785573500903	967.635921137582	285.932452321982	1239.114053916137	800.405648309575	532.228355392330	1216.870548532366	679.998039239478	614.698375547655	1306.678534641204	645.677978205768	533.556793925734	1339.693249616876	539.062368494832	560.648740019840	1161.276296791600	746.627793780031	319.796887434326	1056.796527070393	638.672462063986	264.260023089125	1131.048396976685	553.982832215998	328.629563631399	1123.995408077071	488.124614355586	341.422496900523	1099.557975538367	418.922434692914	336.037233980572	1009.350728196645	302.537424636255	293.132214758669	1062.839860018449	194.373655786157	367.201139801559	1278.374055548705	454.165439106250	572.308632703480	1170.235520848599	392.989424735502	638.719708247163	1177.073071386080	281.500026162961	593.226185005794	993.060816825854	184.260526939837	573.840693888914	1170.085463633182	154.258952803325	612.201332763137	1062.315498622494	135.306091603280	646.478130585516	1250.931565979298	51.933030898590	635.737414386505	936.544037378745	39.191030050949	420.777574753929	1006.730468299863	36.386743053430	336.728729588170	1091.400509564417	96.704884938616	360.008027178277	1218.344569260689	43.713157989702	325.718910345992	1167.881228377741	1110.549159903944	120.296576131626	1377.807557624301	954.136078942841	136.473848339358	1048.712489263741	1090.833591540858	706.300493091100	1105.967780393319	835.407009519870	710.235717956567	
107	49.531714285714	916.619669435457	1014.443306591204	440.549275075663	1108.818273646853	1444.873452851392	268.142170915547	1204.674709958011	1370.694489718182	431.262229337423	1115.776340068202	1438.734050263322	604.858849397116	1086.159392148812	1501.603668856648	425.697086888963	1143.191561618736	953.063517642779	559.889878716447	1131.969171601241	967.319873214683	286.017276037985	1237.756074513741	801.698717352409	531.950659485036	1216.822616693041	681.113690323923	614.772671327431	1306.255001653788	647.230053413495	533.197484912536	1341.133608439193	542.864388946930	560.362826071700	1157.361837140939	745.209447402616	320.127131048751	1051.551872173874	638.597302101076	263.887175319168	1124.215622810971	552.997417786610	328.507843999238	1116.360067215333	487.480948914286	341.104728069767	1091.609749218386	418.555341888489	335.799099797043	1000.960744100683	302.536042641365	292.839980802962	1053.772091675557	194.183543320874	367.138132940895	1284.287716117143	456.210318199339	572.526520273624	1181.022251521543	388.491189014124	639.960795433741	1194.564799176713	277.659219291786	594.413982491142	1017.296526351107	168.962231930911	576.324431264526	1195.964825336006	150.074807602602	613.622925359143	1089.850965260604	124.522103863615	648.620649591426	1282.992750913729	53.108440381598	636.811523248997	927.114583298943	39.232712158364	420.723261357077	997.294046571738	36.360263486066	336.714011605076	1081.997854013202	96.647261831530	359.993474990725	1208.933034430880	43.598824493747	325.716190524989	1175.756472052641	1113.882473731485	118.098987665360	1394.157952885467	969.996922711644	136.221797154677	1038.220002936085	1091.681310067545	705.505498081015	1076.173309549002	832.727100129896	712.904259393451	
108	49.543428571429	915.422750651710	1014.316669088485	439.779141177425	1110.326787165110	1444.758050480865	268.885906143878	1204.655182668004	1369.734426388978	432.474063609061	1114.785344513234	1437.561050319116	605.646157791185	1086.358046897395	1501.064538318826	426.377665848402	1141.570193256660	952.497676470241	560.251075818556	1131.250363835278	966.874114962805	286.155688922683	1236.026392410704	802.120888602900	531.875354423727	1215.775910329209	681.415234328095	614.981697413253	1304.903195962524	647.770508438293	533.134955529422	1341.386955714595	545.841213291790	560.269914102214	1153.589836451650	743.710246203586	320.323585136122	1046.326961062039	638.504291751733	263.529774329573	1117.437764124123	552.000995677532	328.337645727313	1108.803497360295	486.816585565885	340.739497843603	1083.665426556543	418.181925852224	335.542080452274	992.553627385172	302.545901827618	292.531439860152	1044.693170581803	193.996884345871	367.056606517701	1289.233261435704	457.788804539079	572.881866901279	1191.371051673074	383.626600602617	641.224179844246	1211.879949644374	273.937209922388	595.556625360765	1042.468154461300	153.729390071500	578.448805906095	1221.988225811526	146.525737255150	614.876040138172	1118.046508945703	114.225197468429	650.467271354631	1315.068990251476	55.646149081028	637.822029524624	917.682379592759	39.280119037223	420.662151187299	987.850441241361	36.329287109404	336.692825692592	1072.590539038594	96.586444671388	359.964929180693	1199.507935830264	43.494622433916	325.712741963701	1183.132187881972	1117.125256747438	116.171641676026	1409.196888466540	986.239282105374	136.312004252502	1027.352777696495	1092.969686171407	704.790802817569	1047.382817934762	832.220378579820	715.351748342805	
109	49.555142857143	914.417533806094	1014.063993791885	439.110355784673	1111.800238419884	1444.488978538042	269.775907716342	1204.711470084702	1368.647187813611	433.769361297684	1113.950369802998	1436.315819020626	606.536560146775	1086.610019701861	1500.372174129502	427.180604862047	1140.086919338657	951.676530667706	560.643979365826	1130.662106281675	966.300098306783	286.363428282638	1233.950030648321	801.650475310858	532.015348959881	1213.767556229794	680.883038285837	615.337717764591	1302.684229250705	647.302283491673	533.377094556215	1340.526909450500	547.951020799981	560.357221448032	1149.987582104904	742.137065140183	320.408130556540	1041.155153708361	638.391630566940	263.191002247287	1110.744581160462	550.991934634004	328.134187230494	1101.351058572937	486.120810566098	340.342975006392	1075.749438172964	417.798916431737	335.272738007583	984.144445119237	302.572777013885	292.210010990575	1035.618974153732	193.813768959733	366.951124136740	1293.221960778893	458.893438951101	573.349886770798	1201.220333299136	378.499729608016	642.471655181858	1228.822702924745	270.455580239848	596.595091177922	1068.287718313910	138.888013422967	580.144535202570	1247.817682902813	143.774838166849	615.903671326377	1146.560178609150	104.658894630171	651.937280089156	1346.708055781694	59.630145935188	638.666031418043	908.244274651367	39.332523907356	420.597095864163	978.398223244265	36.294585254156	336.665199213071	1063.177159739674	96.521478877350	359.920723855236	1190.069203069561	43.399500203540	325.708630718048	1190.035296641102	1120.232915866201	114.523087646583	1422.879077386490	1002.705672989135	136.733390393439	1016.200863589377	1094.785152485993	704.207767819044	1019.904032724493	833.636012326464	717.565697285938	
